M48
;DRILL file {KiCad (2015-06-03 BZR 5697)-product} date 2015 June 05, Friday 23:17:54
;FORMAT={-:-/ absolute / metric / decimal}
FMAT,2
METRIC,TZ
T1C1.016
%
G90
G05
M71
T1
X142.303Y-101.6
X142.303Y-104.14
X142.303Y-106.68
X142.303Y-109.22
X142.303Y-118.6
X142.303Y-121.14
X142.303Y-123.68
X142.303Y-126.22
X142.303Y-135.6
X142.303Y-138.14
X142.303Y-140.68
X142.303Y-143.22
X155.004Y-101.6
X155.004Y-104.14
X155.004Y-106.68
X155.004Y-109.22
X155.004Y-118.6
X155.004Y-121.14
X155.004Y-123.68
X155.004Y-126.22
X155.004Y-135.6
X155.004Y-138.14
X155.004Y-140.68
X155.004Y-143.22
X164.303Y-101.6
X164.303Y-104.14
X164.303Y-106.68
X164.303Y-109.22
X164.303Y-118.6
X164.303Y-121.14
X164.303Y-123.68
X164.303Y-126.22
X164.303Y-135.6
X164.303Y-138.14
X164.303Y-140.68
X164.303Y-143.22
X177.004Y-101.6
X177.004Y-104.14
X177.004Y-106.68
X177.004Y-109.22
X177.004Y-118.6
X177.004Y-121.14
X177.004Y-123.68
X177.004Y-126.22
X177.004Y-135.6
X177.004Y-138.14
X177.004Y-140.68
X177.004Y-143.22
X186.303Y-101.6
X186.303Y-104.14
X186.303Y-106.68
X186.303Y-109.22
X186.303Y-118.6
X186.303Y-121.14
X186.303Y-123.68
X186.303Y-126.22
X186.303Y-135.6
X186.303Y-138.14
X186.303Y-140.68
X186.303Y-143.22
X199.004Y-101.6
X199.004Y-104.14
X199.004Y-106.68
X199.004Y-109.22
X199.004Y-118.6
X199.004Y-121.14
X199.004Y-123.68
X199.004Y-126.22
X199.004Y-135.6
X199.004Y-138.14
X199.004Y-140.68
X199.004Y-143.22
T0
M30
